<?xml version="1.0" encoding="utf-8"?>
<!-- Generator: Adobe Illustrator 16.0.4, SVG Export Plug-In . SVG Version: 6.00 Build 0)  -->
<!DOCTYPE svg PUBLIC "-//W3C//DTD SVG 1.1//EN" "http://www.w3.org/Graphics/SVG/1.1/DTD/svg11.dtd">
<svg version="1.1" id="Capa_1" xmlns="http://www.w3.org/2000/svg" xmlns:xlink="http://www.w3.org/1999/xlink" x="0px" y="0px"
	 width="792px" height="1224px" viewBox="0 0 792 1224" enable-background="new 0 0 792 1224" xml:space="preserve">
<g>
	<path fill="#FFFFFF" d="M395.992,492.405c5.237,0,10.344-2.114,14.048-5.818c3.678-3.71,5.795-8.813,5.795-14.021
		c0-5.24-2.117-10.344-5.795-14.048c-3.704-3.678-8.811-5.792-14.048-5.792c-5.214,0-10.317,2.114-14.021,5.792
		c-3.704,3.704-5.818,8.808-5.818,14.048c0,5.208,2.114,10.312,5.818,14.021C385.675,490.291,390.778,492.405,395.992,492.405z"/>
	<path fill="#FFFFFF" d="M792,600.901c0-29.829-19.715-55.51-47.826-66.715c5.632-8.808,5.725-20.509-0.707-29.562
		C664.648,393.597,534.755,327.317,396,327.317c-138.763,0-268.661,66.288-347.472,177.312c-6.427,9.054-6.338,20.744-0.704,29.558
		C19.717,545.387,0,571.072,0,600.901c0,17.558,6.827,33.678,18.176,46.256C6.827,659.733,0,675.858,0,693.416
		c0,27.219,16.421,50.984,40.656,63.442v46.83c0,51.277,41.672,92.994,92.893,92.994h524.902c51.221,0,92.893-41.72,92.893-92.994
		v-46.83C775.579,744.4,792,720.635,792,693.416c0-17.558-6.826-33.683-18.176-46.262C785.174,634.579,792,618.459,792,600.901z
		 M739.094,693.416c0,10.547-12.363,19.803-26.454,19.803H390.646l39.61-39.61H712.64
		C726.73,673.61,739.094,682.864,739.094,693.416z M266.52,762.52l-88.907-88.911l177.816,0.005L266.52,762.52z M79.36,713.219
		c-14.09,0-26.453-9.256-26.453-19.803c0-10.552,12.363-19.808,26.453-19.808h23.43l39.61,39.61H79.36z M79.36,620.704
		c-14.09,0-26.453-9.251-26.453-19.803s12.363-19.808,26.453-19.808h633.28c14.091,0,26.454,9.256,26.454,19.808
		s-12.363,19.803-26.454,19.803H79.36z M396.003,380.224c118.655,0,229.794,55.157,299.144,147.962H96.851
		C166.197,435.387,277.339,380.224,396.003,380.224z M658.451,843.776H133.549c-22.048,0-39.987-17.979-39.987-40.089v-37.562
		h101.744l52.509,52.51c5.168,5.168,11.936,7.749,18.707,7.749c6.768,0,13.539-2.584,18.707-7.749l52.512-52.51h360.698v37.562
		C698.438,825.797,680.496,843.776,658.451,843.776z"/>
	<path fill="#FFFFFF" d="M337.718,431.989c5.237,0,10.344-2.12,14.019-5.824c3.706-3.704,5.821-8.808,5.821-14.021
		c0-5.24-2.115-10.345-5.821-14.049c-3.675-3.677-8.781-5.792-14.019-5.792c-5.24,0-10.345,2.115-14.021,5.792
		c-3.704,3.704-5.821,8.809-5.821,14.049c0,5.213,2.117,10.316,5.821,14.021C327.373,429.869,332.478,431.989,337.718,431.989z"/>
	<path fill="#FFFFFF" d="M454.27,431.989c5.237,0,10.344-2.12,14.048-5.824c3.678-3.704,5.821-8.808,5.821-14.021
		c0-5.24-2.144-10.345-5.821-14.049c-3.704-3.677-8.811-5.792-14.048-5.792c-5.211,0-10.317,2.115-14.021,5.792
		c-3.704,3.704-5.821,8.809-5.821,14.049c0,5.213,2.117,10.316,5.821,14.021C443.949,429.869,449.056,431.989,454.27,431.989z"/>
	<path fill="#FFFFFF" d="M221.136,492.405c5.24,0,10.344-2.114,14.048-5.818c3.677-3.71,5.792-8.813,5.792-14.021
		c0-5.24-2.115-10.344-5.792-14.048c-3.704-3.678-8.808-5.792-14.048-5.792c-5.211,0-10.315,2.114-14.021,5.792
		c-3.702,3.704-5.821,8.808-5.821,14.048c0,5.208,2.12,10.312,5.821,14.021C210.821,490.291,215.925,492.405,221.136,492.405z"/>
	<path fill="#FFFFFF" d="M570.846,492.405c5.239,0,10.344-2.114,14.051-5.818c3.674-3.71,5.791-8.813,5.791-14.021
		c0-5.24-2.117-10.344-5.791-14.048c-3.707-3.678-8.838-5.792-14.051-5.792c-5.214,0-10.315,2.114-14.02,5.792
		c-3.706,3.704-5.82,8.808-5.82,14.048c0,5.208,2.114,10.344,5.82,14.021C560.53,490.291,565.635,492.405,570.846,492.405z"/>
</g>
</svg>
