<?xml version="1.0" encoding="utf-8"?>
<!-- Generator: Adobe Illustrator 16.0.4, SVG Export Plug-In . SVG Version: 6.00 Build 0)  -->
<!DOCTYPE svg PUBLIC "-//W3C//DTD SVG 1.1//EN" "http://www.w3.org/Graphics/SVG/1.1/DTD/svg11.dtd">
<svg version="1.1" id="Layer_1" xmlns="http://www.w3.org/2000/svg" xmlns:xlink="http://www.w3.org/1999/xlink" x="0px" y="0px"
	 width="133.536px" height="19.061px" viewBox="0 -0.004 133.536 19.061" enable-background="new 0 -0.004 133.536 19.061"
	 xml:space="preserve">
<rect x="2.79" y="2.79" transform="matrix(-0.7071 0.7071 -0.7071 -0.7071 23.0017 9.5266)" fill="#6196AD" width="13.475" height="13.474"/>
<rect x="21.87" y="2.792" transform="matrix(-0.7071 0.7071 -0.7071 -0.7071 55.5736 -3.9619)" fill="#6196AD" width="13.474" height="13.474"/>
<rect x="40.949" y="2.788" transform="matrix(-0.7071 0.7071 -0.7071 -0.7071 88.142 -17.4584)" fill="#6196AD" width="13.475" height="13.475"/>
<rect x="60.032" y="2.79" transform="matrix(-0.7071 0.7071 -0.7071 -0.7071 120.7181 -30.9479)" fill="#6196AD" width="13.474" height="13.474"/>
<rect x="79.108" y="2.787" transform="matrix(-0.7071 0.7071 -0.7071 -0.7071 153.2806 -44.4449)" fill="#6196AD" width="13.475" height="13.474"/>
<rect x="98.192" y="2.791" transform="matrix(-0.7071 0.7071 -0.7071 -0.7071 185.8619 -57.9304)" fill="#6196AD" width="13.474" height="13.474"/>
<rect x="117.271" y="2.791" transform="matrix(-0.7071 0.7071 -0.7071 -0.7071 218.4331 -71.4208)" fill="#6196AD" width="13.475" height="13.474"/>
</svg>
